<?xml version="1.0" standalone="no"?>
<!DOCTYPE svg PUBLIC "-//W3C//DTD SVG 20010904//EN"
 "http://www.w3.org/TR/2001/REC-SVG-20010904/DTD/svg10.dtd">
<svg version="1.0" xmlns="http://www.w3.org/2000/svg"
 width="1920.000000pt" height="1920.000000pt" viewBox="0 0 1920.000000 1920.000000"
 preserveAspectRatio="xMidYMid meet">
<metadata>
Created by potrace 1.11, written by Peter Selinger 2001-2013
</metadata>
<g transform="translate(0.000000,1920.000000) scale(0.100000,-0.100000)"
fill="#000000" stroke="none">
<path d="M932 14945 c-435 -79 -780 -398 -900 -832 l-27 -98 0 -4415 0 -4415
27 -100 c108 -394 417 -703 815 -813 l98 -27 8655 0 8655 0 100 27 c394 108
703 417 813 815 l27 98 0 4415 0 4415 -27 97 c-111 403 -413 705 -815 816
l-98 27 -8625 2 c-7102 1 -8638 -1 -8698 -12z m17291 -656 c128 -43 224 -129
285 -257 l37 -77 3 -4338 2 -4337 -21 -63 c-43 -128 -129 -224 -257 -285 l-77
-37 -8578 -3 -8577 -2 -63 21 c-128 43 -224 129 -285 257 l-37 77 -3 4338 -2
4337 21 63 c50 150 167 263 324 313 32 10 1708 13 8603 13 l8563 1 62 -21z"/>
<path d="M6770 9600 c0 -2710 3 -3391 13 -3387 54 23 7044 3380 7049 3385 4 5
-6993 3369 -7053 3390 -5 2 -9 -1292 -9 -3388z"/>
</g>
</svg>
